<?xml version="1.0" encoding="UTF-8"?>
<svg
  xmlns="http://www.w3.org/2000/svg"
  xmlns:xlink="http://www.w3.org/1999/xlink"
  viewBox="0 0 2000 2000"
>
  <path
    d="M978.495,373.916L1005.376,373.219C1005.376,373.219 1002.974,429.552 1016.041,455.339C1038.491,499.646 1078.154,561.198 1140.852,631.025C1207.691,705.464 1279.785,766.611 1279.991,871.187C1280.162,957.818 1236.738,1044.834 1230.405,1041.031C1223.704,1037.008 1295.407,846.164 1201.288,759.127C1125.456,689.001 1034.122,668.555 1004.605,660.889C1004.513,695.503 1003.852,736.596 1010.297,755.385C1047.274,863.194 1129.132,946.381 1185.533,1027.815C1229.577,1091.408 1303.149,1188.035 1265.479,1336.209C1246.124,1412.34 1231.812,1443.448 1169.376,1519.102C1201.686,1436.554 1257.137,1292.066 1218.633,1167.666C1196.089,1094.832 1128.493,1035.93 1004.351,1001.68L1006.548,1399.909C1003.493,1429.244 952.289,1569.778 806.004,1571.214C693.513,1572.319 693.169,1502.588 692.99,1461.72C692.626,1378.634 859.616,1231.322 978.904,1324.676L978.495,373.916Z"
    fill="#ff0000"
    fill-rule="evenodd"
    clip-rule="evenodd"
    stroke="#ff0000"
    stroke-linecap="round"
    stroke-linejoin="round"
    stroke-miterlimit="1.5"
    stroke-width="42"
  />
</svg>
